# MagicaVoxel @ Ephtracy

# group
g elevator

# material
mtllib elevator.mtl
usemtl palette

# normals
vn -1 0 0
vn 1 0 0
vn 0 0 1
vn 0 0 -1
vn 0 -1 0
vn 0 1 0

# texcoords
vt 0.400391 0.5
vt 0.958984 0.5

# verts
v -4 0 2
v -4 0 -0
v -4 0 -4
v -4 0 -6
v -4 10 -0
v -4 10 -4
v -4 12 2
v -4 12 -6
v 2 0 -4
v 2 0 -6
v 2 10 -4
v 2 10 -6
v 3 8 2
v 3 8 -0
v 3 9 2
v 3 9 -0
v -3 8 2
v -3 8 -0
v -3 9 2
v -3 9 -0
v -2 0 -4
v -2 0 -6
v -2 10 -4
v -2 10 -6
v 4 0 2
v 4 0 -0
v 4 0 -4
v 4 0 -6
v 4 10 -0
v 4 10 -4
v 4 12 2
v 4 12 -6
v -4 0 2
v -4 12 2
v -3 5 2
v -3 6 2
v -3 8 2
v -3 9 2
v -1 3 2
v -1 5 2
v -1 6 2
v -1 7 2
v 1 3 2
v 1 5 2
v 1 6 2
v 1 7 2
v 3 5 2
v 3 6 2
v 3 8 2
v 3 9 2
v 4 0 2
v 4 12 2
v -4 0 -4
v -4 10 -4
v -2 0 -4
v -2 10 -4
v 2 0 -4
v 2 10 -4
v 4 0 -4
v 4 10 -4
v -4 0 -0
v -4 10 -0
v -3 8 -0
v -3 9 -0
v 3 8 -0
v 3 9 -0
v 4 0 -0
v 4 10 -0
v -4 0 -6
v -4 12 -6
v -2 0 -6
v -2 10 -6
v 2 0 -6
v 2 10 -6
v 4 0 -6
v 4 12 -6
v -4 0 2
v 4 0 2
v -4 0 -0
v 4 0 -0
v -4 0 -4
v -2 0 -4
v 2 0 -4
v 4 0 -4
v -4 0 -6
v -2 0 -6
v 2 0 -6
v 4 0 -6
v -3 9 2
v 3 9 2
v -3 9 -0
v 3 9 -0
v -4 10 -0
v 4 10 -0
v -4 10 -4
v -2 10 -4
v 2 10 -4
v 4 10 -4
v -2 10 -6
v 2 10 -6
v -3 8 2
v 3 8 2
v -3 8 -0
v 3 8 -0
v -4 12 2
v 4 12 2
v -4 12 -6
v 4 12 -6

# faces
f 5/2/1 2/2/1 1/2/1
f 6/2/1 4/2/1 3/2/1
f 7/2/1 5/2/1 1/2/1
f 7/2/1 6/2/1 5/2/1
f 8/2/1 4/2/1 6/2/1
f 8/2/1 6/2/1 7/2/1
f 11/2/1 10/2/1 9/2/1
f 12/2/1 10/2/1 11/2/1
f 15/2/1 14/2/1 13/2/1
f 16/2/1 14/2/1 15/2/1
f 17/2/2 18/2/2 19/2/2
f 19/2/2 18/2/2 20/2/2
f 21/2/2 22/2/2 23/2/2
f 23/2/2 22/2/2 24/2/2
f 25/2/2 26/2/2 29/2/2
f 27/2/2 28/2/2 30/2/2
f 25/2/2 29/2/2 31/2/2
f 29/2/2 30/2/2 31/2/2
f 30/2/2 28/2/2 32/2/2
f 31/2/2 30/2/2 32/2/2
f 35/2/3 34/2/3 33/2/3
f 36/2/3 34/2/3 35/2/3
f 37/2/3 34/2/3 36/2/3
f 38/2/3 34/2/3 37/2/3
f 39/2/3 35/2/3 33/2/3
f 40/1/3 36/1/3 35/1/3
f 40/2/3 35/2/3 39/2/3
f 41/2/3 37/2/3 36/2/3
f 41/1/3 36/1/3 40/1/3
f 42/2/3 37/2/3 41/2/3
f 43/2/3 39/2/3 33/2/3
f 43/1/3 40/1/3 39/1/3
f 43/1/3 42/1/3 41/1/3
f 43/1/3 41/1/3 40/1/3
f 44/1/3 42/1/3 43/1/3
f 45/1/3 42/1/3 44/1/3
f 46/2/3 37/2/3 42/2/3
f 46/1/3 42/1/3 45/1/3
f 47/1/3 45/1/3 44/1/3
f 47/2/3 44/2/3 43/2/3
f 48/2/3 46/2/3 45/2/3
f 48/1/3 45/1/3 47/1/3
f 49/2/3 37/2/3 46/2/3
f 49/2/3 46/2/3 48/2/3
f 50/2/3 34/2/3 38/2/3
f 51/2/3 49/2/3 48/2/3
f 51/2/3 50/2/3 49/2/3
f 51/2/3 48/2/3 47/2/3
f 51/2/3 43/2/3 33/2/3
f 51/2/3 47/2/3 43/2/3
f 52/2/3 34/2/3 50/2/3
f 52/2/3 50/2/3 51/2/3
f 55/2/3 54/2/3 53/2/3
f 56/2/3 54/2/3 55/2/3
f 59/2/3 58/2/3 57/2/3
f 60/2/3 58/2/3 59/2/3
f 61/2/4 62/2/4 63/2/4
f 63/2/4 62/2/4 64/2/4
f 61/2/4 63/2/4 65/2/4
f 64/2/4 62/2/4 66/2/4
f 61/2/4 65/2/4 67/2/4
f 65/2/4 66/2/4 67/2/4
f 66/2/4 62/2/4 68/2/4
f 67/2/4 66/2/4 68/2/4
f 69/2/4 70/2/4 71/2/4
f 71/2/4 70/2/4 72/2/4
f 72/2/4 70/2/4 74/2/4
f 73/2/4 74/2/4 75/2/4
f 74/2/4 70/2/4 76/2/4
f 75/2/4 74/2/4 76/2/4
f 79/2/5 78/2/5 77/2/5
f 80/2/5 78/2/5 79/2/5
f 85/2/5 82/2/5 81/2/5
f 86/2/5 82/2/5 85/2/5
f 87/2/5 84/2/5 83/2/5
f 88/2/5 84/2/5 87/2/5
f 91/2/5 90/2/5 89/2/5
f 92/2/5 90/2/5 91/2/5
f 95/2/5 94/2/5 93/2/5
f 96/2/5 94/2/5 95/2/5
f 97/2/5 94/2/5 96/2/5
f 98/2/5 94/2/5 97/2/5
f 99/2/5 97/2/5 96/2/5
f 100/2/5 97/2/5 99/2/5
f 101/2/6 102/2/6 103/2/6
f 103/2/6 102/2/6 104/2/6
f 105/2/6 106/2/6 107/2/6
f 107/2/6 106/2/6 108/2/6
