# MagicaVoxel @ Ephtracy

# group
g GoodSoul

# material
mtllib GoodSoul.mtl
usemtl palette

# normals
vn -1 0 0
vn 1 0 0
vn 0 0 1
vn 0 0 -1
vn 0 -1 0
vn 0 1 0

# texcoords
vt 0.705078 0.5
vt 0.798828 0.5
vt 0.958984 0.5

# verts
v -5 0 4
v -5 0 3
v -5 0 -1
v -5 0 -2
v -5 2 4
v -5 2 3
v -5 2 -1
v -5 2 -2
v -4 2 4
v -4 2 3
v -4 2 -1
v -4 2 -2
v -4 3 4
v -4 3 -2
v -4 4 -4
v -4 4 -5
v -4 6 4
v -4 6 -2
v -4 8 -4
v -4 8 -5
v -4 9 4
v -4 9 -2
v -3 3 4
v -3 3 -2
v -3 3 -4
v -3 3 -5
v -3 4 -4
v -3 4 -5
v -3 6 4
v -3 6 -2
v -3 8 -4
v -3 8 -5
v -3 9 -4
v -3 9 -5
v -3 11 4
v -3 11 -2
v -3 12 4
v -3 12 -2
v -2 4 -2
v -2 4 -3
v -2 5 -3
v -2 5 -4
v -2 7 -3
v -2 7 -4
v -2 8 -2
v -2 8 -3
v -1 0 4
v -1 0 -2
v -1 3 4
v -1 3 -2
v -1 4 4
v -1 4 3
v -1 8 4
v -1 8 3
v 1 3 -4
v 1 3 -5
v 1 4 -2
v 1 4 -3
v 1 5 -3
v 1 5 -4
v 1 7 -3
v 1 7 -4
v 1 8 -2
v 1 8 -3
v 1 9 -4
v 1 9 -5
v 2 4 4
v 2 4 3
v 2 8 4
v 2 8 3
v 2 11 3
v 2 11 -1
v 2 12 3
v 2 12 -1
v 3 0 4
v 3 0 3
v 3 0 -1
v 3 0 -2
v 3 2 3
v 3 2 -1
v 3 3 4
v 3 3 -2
v -3 0 4
v -3 0 3
v -3 0 -1
v -3 0 -2
v -3 2 3
v -3 2 -1
v -3 3 4
v -3 3 -2
v -2 4 4
v -2 4 3
v -2 8 4
v -2 8 3
v -2 11 3
v -2 11 -1
v -2 12 3
v -2 12 -1
v -1 3 -4
v -1 3 -5
v -1 4 -2
v -1 4 -3
v -1 5 -3
v -1 5 -4
v -1 7 -3
v -1 7 -4
v -1 8 -2
v -1 8 -3
v -1 9 -4
v -1 9 -5
v 1 0 4
v 1 0 -2
v 1 3 4
v 1 3 -2
v 1 4 4
v 1 4 3
v 1 8 4
v 1 8 3
v 2 4 -2
v 2 4 -3
v 2 5 -3
v 2 5 -4
v 2 7 -3
v 2 7 -4
v 2 8 -2
v 2 8 -3
v 3 3 4
v 3 3 -2
v 3 3 -4
v 3 3 -5
v 3 4 -4
v 3 4 -5
v 3 6 4
v 3 6 -2
v 3 8 -4
v 3 8 -5
v 3 9 -4
v 3 9 -5
v 3 11 4
v 3 11 -2
v 3 12 4
v 3 12 -2
v 4 2 4
v 4 2 3
v 4 2 -1
v 4 2 -2
v 4 3 4
v 4 3 -2
v 4 4 -4
v 4 4 -5
v 4 6 4
v 4 6 -2
v 4 8 -4
v 4 8 -5
v 4 9 4
v 4 9 -2
v 5 0 4
v 5 0 3
v 5 0 -1
v 5 0 -2
v 5 2 4
v 5 2 3
v 5 2 -1
v 5 2 -2
v -5 0 4
v -5 2 4
v -4 2 4
v -4 3 4
v -4 6 4
v -4 9 4
v -3 0 4
v -3 3 4
v -3 6 4
v -3 11 4
v -3 12 4
v -2 4 4
v -2 8 4
v -1 0 4
v -1 3 4
v -1 4 4
v -1 8 4
v 1 0 4
v 1 3 4
v 1 4 4
v 1 8 4
v 2 4 4
v 2 8 4
v 3 0 4
v 3 3 4
v 3 6 4
v 3 11 4
v 3 12 4
v 4 2 4
v 4 3 4
v 4 6 4
v 4 9 4
v 5 0 4
v 5 2 4
v -2 4 3
v -2 8 3
v -1 4 3
v -1 8 3
v 1 4 3
v 1 8 3
v 2 4 3
v 2 8 3
v -5 0 -1
v -5 2 -1
v -4 2 -1
v -3 0 -1
v -3 2 -1
v -2 11 -1
v -2 12 -1
v 2 11 -1
v 2 12 -1
v 3 0 -1
v 3 2 -1
v 4 2 -1
v 5 0 -1
v 5 2 -1
v -4 4 -4
v -4 8 -4
v -3 3 -4
v -3 4 -4
v -3 8 -4
v -3 9 -4
v -2 5 -4
v -2 7 -4
v -1 3 -4
v -1 5 -4
v -1 7 -4
v -1 9 -4
v 1 3 -4
v 1 5 -4
v 1 7 -4
v 1 9 -4
v 2 5 -4
v 2 7 -4
v 3 3 -4
v 3 4 -4
v 3 8 -4
v 3 9 -4
v 4 4 -4
v 4 8 -4
v -5 0 3
v -5 2 3
v -4 2 3
v -3 0 3
v -3 2 3
v -2 11 3
v -2 12 3
v 2 11 3
v 2 12 3
v 3 0 3
v 3 2 3
v 4 2 3
v 5 0 3
v 5 2 3
v -5 0 -2
v -5 2 -2
v -4 2 -2
v -4 3 -2
v -4 6 -2
v -4 9 -2
v -3 0 -2
v -3 3 -2
v -3 6 -2
v -3 11 -2
v -3 12 -2
v -2 4 -2
v -2 8 -2
v -1 0 -2
v -1 3 -2
v -1 4 -2
v -1 8 -2
v 1 0 -2
v 1 3 -2
v 1 4 -2
v 1 8 -2
v 2 4 -2
v 2 8 -2
v 3 0 -2
v 3 3 -2
v 3 6 -2
v 3 11 -2
v 3 12 -2
v 4 2 -2
v 4 3 -2
v 4 6 -2
v 4 9 -2
v 5 0 -2
v 5 2 -2
v -2 4 -3
v -2 5 -3
v -2 7 -3
v -2 8 -3
v -1 4 -3
v -1 5 -3
v -1 7 -3
v -1 8 -3
v 1 4 -3
v 1 5 -3
v 1 7 -3
v 1 8 -3
v 2 4 -3
v 2 5 -3
v 2 7 -3
v 2 8 -3
v -4 4 -5
v -4 8 -5
v -3 3 -5
v -3 4 -5
v -3 8 -5
v -3 9 -5
v -1 3 -5
v -1 9 -5
v 1 3 -5
v 1 9 -5
v 3 3 -5
v 3 4 -5
v 3 8 -5
v 3 9 -5
v 4 4 -5
v 4 8 -5
v -5 0 4
v -3 0 4
v -1 0 4
v 1 0 4
v 3 0 4
v 5 0 4
v -5 0 3
v -3 0 3
v 3 0 3
v 5 0 3
v -5 0 -1
v -3 0 -1
v 3 0 -1
v 5 0 -1
v -5 0 -2
v -3 0 -2
v -1 0 -2
v 1 0 -2
v 3 0 -2
v 5 0 -2
v -4 2 3
v -3 2 3
v 3 2 3
v 4 2 3
v -4 2 -1
v -3 2 -1
v 3 2 -1
v 4 2 -1
v -3 3 4
v -1 3 4
v 1 3 4
v 3 3 4
v -3 3 -2
v -1 3 -2
v 1 3 -2
v 3 3 -2
v -3 3 -4
v -1 3 -4
v 1 3 -4
v 3 3 -4
v -3 3 -5
v -1 3 -5
v 1 3 -5
v 3 3 -5
v -2 4 -2
v -1 4 -2
v 1 4 -2
v 2 4 -2
v -2 4 -3
v -1 4 -3
v 1 4 -3
v 2 4 -3
v -4 4 -4
v -3 4 -4
v 3 4 -4
v 4 4 -4
v -4 4 -5
v -3 4 -5
v 3 4 -5
v 4 4 -5
v -2 5 -3
v -1 5 -3
v 1 5 -3
v 2 5 -3
v -2 5 -4
v -1 5 -4
v 1 5 -4
v 2 5 -4
v -4 6 4
v -3 6 4
v 3 6 4
v 4 6 4
v -4 6 -2
v -3 6 -2
v 3 6 -2
v 4 6 -2
v -2 8 4
v -1 8 4
v 1 8 4
v 2 8 4
v -2 8 3
v -1 8 3
v 1 8 3
v 2 8 3
v -3 11 4
v 3 11 4
v -2 11 3
v 2 11 3
v -2 11 -1
v 2 11 -1
v -3 11 -2
v 3 11 -2
v -5 2 4
v -4 2 4
v 4 2 4
v 5 2 4
v -5 2 3
v -4 2 3
v 4 2 3
v 5 2 3
v -5 2 -1
v -4 2 -1
v 4 2 -1
v 5 2 -1
v -5 2 -2
v -4 2 -2
v 4 2 -2
v 5 2 -2
v -4 3 4
v -3 3 4
v 3 3 4
v 4 3 4
v -4 3 -2
v -3 3 -2
v 3 3 -2
v 4 3 -2
v -2 4 4
v -1 4 4
v 1 4 4
v 2 4 4
v -2 4 3
v -1 4 3
v 1 4 3
v 2 4 3
v -2 7 -3
v -1 7 -3
v 1 7 -3
v 2 7 -3
v -2 7 -4
v -1 7 -4
v 1 7 -4
v 2 7 -4
v -2 8 -2
v -1 8 -2
v 1 8 -2
v 2 8 -2
v -2 8 -3
v -1 8 -3
v 1 8 -3
v 2 8 -3
v -4 8 -4
v -3 8 -4
v 3 8 -4
v 4 8 -4
v -4 8 -5
v -3 8 -5
v 3 8 -5
v 4 8 -5
v -4 9 4
v 4 9 4
v -4 9 -2
v 4 9 -2
v -3 9 -4
v -1 9 -4
v 1 9 -4
v 3 9 -4
v -3 9 -5
v -1 9 -5
v 1 9 -5
v 3 9 -5
v -3 12 4
v 3 12 4
v -2 12 3
v 2 12 3
v -2 12 -1
v 2 12 -1
v -3 12 -2
v 3 12 -2

# faces
f 5/1/1 2/1/1 1/1/1
f 6/1/1 2/1/1 5/1/1
f 7/1/1 4/1/1 3/1/1
f 8/1/1 4/1/1 7/1/1
f 13/1/1 10/1/1 9/1/1
f 13/1/1 12/1/1 11/1/1
f 13/1/1 11/1/1 10/1/1
f 14/1/1 12/1/1 13/1/1
f 19/1/1 16/1/1 15/1/1
f 20/1/1 16/1/1 19/1/1
f 21/3/1 18/3/1 17/3/1
f 22/3/1 18/3/1 21/3/1
f 27/1/1 26/1/1 25/1/1
f 28/1/1 26/1/1 27/1/1
f 29/3/1 24/3/1 23/3/1
f 30/3/1 24/3/1 29/3/1
f 33/1/1 32/1/1 31/1/1
f 34/1/1 32/1/1 33/1/1
f 37/2/1 36/2/1 35/2/1
f 38/2/1 36/2/1 37/2/1
f 41/1/1 40/1/1 39/1/1
f 43/1/1 41/1/1 39/1/1
f 43/1/1 42/1/1 41/1/1
f 44/1/1 42/1/1 43/1/1
f 45/1/1 43/1/1 39/1/1
f 46/1/1 43/1/1 45/1/1
f 49/3/1 48/3/1 47/3/1
f 50/3/1 48/3/1 49/3/1
f 53/3/1 52/3/1 51/3/1
f 54/3/1 52/3/1 53/3/1
f 59/1/1 58/1/1 57/1/1
f 60/1/1 56/1/1 55/1/1
f 61/1/1 59/1/1 57/1/1
f 61/1/1 60/1/1 59/1/1
f 62/1/1 56/1/1 60/1/1
f 62/1/1 60/1/1 61/1/1
f 63/1/1 61/1/1 57/1/1
f 64/1/1 61/1/1 63/1/1
f 65/1/1 56/1/1 62/1/1
f 66/1/1 56/1/1 65/1/1
f 69/3/1 68/3/1 67/3/1
f 70/3/1 68/3/1 69/3/1
f 73/2/1 72/2/1 71/2/1
f 74/2/1 72/2/1 73/2/1
f 79/1/1 76/1/1 75/1/1
f 80/1/1 78/1/1 77/1/1
f 81/1/1 79/1/1 75/1/1
f 81/1/1 80/1/1 79/1/1
f 82/1/1 78/1/1 80/1/1
f 82/1/1 80/1/1 81/1/1
f 83/1/2 84/1/2 87/1/2
f 85/1/2 86/1/2 88/1/2
f 83/1/2 87/1/2 89/1/2
f 87/1/2 88/1/2 89/1/2
f 88/1/2 86/1/2 90/1/2
f 89/1/2 88/1/2 90/1/2
f 91/3/2 92/3/2 93/3/2
f 93/3/2 92/3/2 94/3/2
f 95/2/2 96/2/2 97/2/2
f 97/2/2 96/2/2 98/2/2
f 101/1/2 102/1/2 103/1/2
f 99/1/2 100/1/2 104/1/2
f 101/1/2 103/1/2 105/1/2
f 103/1/2 104/1/2 105/1/2
f 104/1/2 100/1/2 106/1/2
f 105/1/2 104/1/2 106/1/2
f 101/1/2 105/1/2 107/1/2
f 107/1/2 105/1/2 108/1/2
f 106/1/2 100/1/2 109/1/2
f 109/1/2 100/1/2 110/1/2
f 111/3/2 112/3/2 113/3/2
f 113/3/2 112/3/2 114/3/2
f 115/3/2 116/3/2 117/3/2
f 117/3/2 116/3/2 118/3/2
f 119/1/2 120/1/2 121/1/2
f 119/1/2 121/1/2 123/1/2
f 121/1/2 122/1/2 123/1/2
f 123/1/2 122/1/2 124/1/2
f 119/1/2 123/1/2 125/1/2
f 125/1/2 123/1/2 126/1/2
f 129/1/2 130/1/2 131/1/2
f 131/1/2 130/1/2 132/1/2
f 127/3/2 128/3/2 133/3/2
f 133/3/2 128/3/2 134/3/2
f 135/1/2 136/1/2 137/1/2
f 137/1/2 136/1/2 138/1/2
f 139/2/2 140/2/2 141/2/2
f 141/2/2 140/2/2 142/2/2
f 143/1/2 144/1/2 147/1/2
f 145/1/2 146/1/2 147/1/2
f 144/1/2 145/1/2 147/1/2
f 147/1/2 146/1/2 148/1/2
f 149/1/2 150/1/2 153/1/2
f 153/1/2 150/1/2 154/1/2
f 151/3/2 152/3/2 155/3/2
f 155/3/2 152/3/2 156/3/2
f 157/1/2 158/1/2 161/1/2
f 161/1/2 158/1/2 162/1/2
f 159/1/2 160/1/2 163/1/2
f 163/1/2 160/1/2 164/1/2
f 167/1/3 166/1/3 165/1/3
f 171/1/3 167/1/3 165/1/3
f 171/1/3 168/1/3 167/1/3
f 172/1/3 168/1/3 171/1/3
f 173/3/3 170/3/3 169/3/3
f 176/3/3 173/3/3 172/3/3
f 177/3/3 170/3/3 173/3/3
f 177/3/3 173/3/3 176/3/3
f 179/3/3 176/3/3 172/3/3
f 180/3/3 176/3/3 179/3/3
f 181/3/3 170/3/3 177/3/3
f 182/3/3 180/3/3 179/3/3
f 182/3/3 181/3/3 180/3/3
f 182/3/3 179/3/3 178/3/3
f 183/3/3 181/3/3 182/3/3
f 184/3/3 181/3/3 183/3/3
f 185/3/3 170/3/3 181/3/3
f 185/3/3 181/3/3 184/3/3
f 186/3/3 184/3/3 183/3/3
f 187/3/3 170/3/3 185/3/3
f 189/3/3 186/3/3 183/3/3
f 189/3/3 187/3/3 186/3/3
f 190/3/3 187/3/3 189/3/3
f 191/2/3 175/2/3 174/2/3
f 192/2/3 175/2/3 191/2/3
f 193/1/3 189/1/3 188/1/3
f 194/1/3 189/1/3 193/1/3
f 195/3/3 187/3/3 190/3/3
f 196/3/3 170/3/3 187/3/3
f 196/3/3 187/3/3 195/3/3
f 197/1/3 193/1/3 188/1/3
f 198/1/3 193/1/3 197/1/3
f 201/1/3 200/1/3 199/1/3
f 202/1/3 200/1/3 201/1/3
f 205/1/3 204/1/3 203/1/3
f 206/1/3 204/1/3 205/1/3
f 209/1/3 208/1/3 207/1/3
f 210/1/3 209/1/3 207/1/3
f 211/1/3 209/1/3 210/1/3
f 214/2/3 213/2/3 212/2/3
f 215/2/3 213/2/3 214/2/3
f 218/1/3 217/1/3 216/1/3
f 219/1/3 218/1/3 216/1/3
f 220/1/3 218/1/3 219/1/3
f 224/1/3 222/1/3 221/1/3
f 225/1/3 222/1/3 224/1/3
f 227/1/3 224/1/3 223/1/3
f 227/1/3 226/1/3 225/1/3
f 227/1/3 225/1/3 224/1/3
f 228/1/3 226/1/3 227/1/3
f 229/1/3 227/1/3 223/1/3
f 230/1/3 227/1/3 229/1/3
f 231/1/3 226/1/3 228/1/3
f 232/1/3 226/1/3 231/1/3
f 237/1/3 234/1/3 233/1/3
f 238/1/3 236/1/3 235/1/3
f 239/1/3 237/1/3 233/1/3
f 239/1/3 238/1/3 237/1/3
f 240/1/3 238/1/3 239/1/3
f 241/1/3 236/1/3 238/1/3
f 241/1/3 238/1/3 240/1/3
f 242/1/3 236/1/3 241/1/3
f 243/1/3 241/1/3 240/1/3
f 244/1/3 241/1/3 243/1/3
f 245/1/4 246/1/4 247/1/4
f 245/1/4 247/1/4 248/1/4
f 248/1/4 247/1/4 249/1/4
f 250/2/4 251/2/4 252/2/4
f 252/2/4 251/2/4 253/2/4
f 254/1/4 255/1/4 256/1/4
f 254/1/4 256/1/4 257/1/4
f 257/1/4 256/1/4 258/1/4
f 259/1/4 260/1/4 261/1/4
f 259/1/4 261/1/4 265/1/4
f 261/1/4 262/1/4 265/1/4
f 265/1/4 262/1/4 266/1/4
f 263/3/4 264/3/4 267/3/4
f 266/3/4 267/3/4 270/3/4
f 267/3/4 264/3/4 271/3/4
f 270/3/4 267/3/4 271/3/4
f 266/3/4 270/3/4 273/3/4
f 273/3/4 270/3/4 274/3/4
f 271/3/4 264/3/4 275/3/4
f 273/3/4 274/3/4 276/3/4
f 274/3/4 275/3/4 276/3/4
f 272/3/4 273/3/4 276/3/4
f 276/3/4 275/3/4 277/3/4
f 277/3/4 275/3/4 278/3/4
f 275/3/4 264/3/4 279/3/4
f 278/3/4 275/3/4 279/3/4
f 277/3/4 278/3/4 280/3/4
f 279/3/4 264/3/4 281/3/4
f 277/3/4 280/3/4 283/3/4
f 280/3/4 281/3/4 283/3/4
f 283/3/4 281/3/4 284/3/4
f 268/2/4 269/2/4 285/2/4
f 285/2/4 269/2/4 286/2/4
f 282/1/4 283/1/4 287/1/4
f 287/1/4 283/1/4 288/1/4
f 284/3/4 281/3/4 289/3/4
f 281/3/4 264/3/4 290/3/4
f 289/3/4 281/3/4 290/3/4
f 282/1/4 287/1/4 291/1/4
f 291/1/4 287/1/4 292/1/4
f 293/1/4 294/1/4 297/1/4
f 297/1/4 294/1/4 298/1/4
f 295/1/4 296/1/4 299/1/4
f 299/1/4 296/1/4 300/1/4
f 301/1/4 302/1/4 305/1/4
f 305/1/4 302/1/4 306/1/4
f 303/1/4 304/1/4 307/1/4
f 307/1/4 304/1/4 308/1/4
f 309/1/4 310/1/4 312/1/4
f 312/1/4 310/1/4 313/1/4
f 311/1/4 312/1/4 315/1/4
f 313/1/4 314/1/4 315/1/4
f 312/1/4 313/1/4 315/1/4
f 315/1/4 314/1/4 316/1/4
f 317/1/4 318/1/4 319/1/4
f 319/1/4 318/1/4 320/1/4
f 320/1/4 318/1/4 321/1/4
f 321/1/4 318/1/4 322/1/4
f 320/1/4 321/1/4 323/1/4
f 323/1/4 321/1/4 324/1/4
f 331/1/5 326/1/5 325/1/5
f 332/1/5 326/1/5 331/1/5
f 333/1/5 330/1/5 329/1/5
f 334/1/5 330/1/5 333/1/5
f 339/1/5 336/1/5 335/1/5
f 340/1/5 336/1/5 339/1/5
f 341/3/5 328/3/5 327/3/5
f 342/3/5 328/3/5 341/3/5
f 343/1/5 338/1/5 337/1/5
f 344/1/5 338/1/5 343/1/5
f 349/1/5 346/1/5 345/1/5
f 350/1/5 346/1/5 349/1/5
f 351/1/5 348/1/5 347/1/5
f 352/1/5 348/1/5 351/1/5
f 357/3/5 354/3/5 353/3/5
f 358/3/5 354/3/5 357/3/5
f 359/3/5 356/3/5 355/3/5
f 360/3/5 356/3/5 359/3/5
f 365/1/5 362/1/5 361/1/5
f 366/1/5 362/1/5 365/1/5
f 367/1/5 364/1/5 363/1/5
f 368/1/5 364/1/5 367/1/5
f 373/1/5 370/1/5 369/1/5
f 374/1/5 370/1/5 373/1/5
f 375/1/5 372/1/5 371/1/5
f 376/1/5 372/1/5 375/1/5
f 381/1/5 378/1/5 377/1/5
f 382/1/5 378/1/5 381/1/5
f 383/1/5 380/1/5 379/1/5
f 384/1/5 380/1/5 383/1/5
f 389/1/5 386/1/5 385/1/5
f 390/1/5 386/1/5 389/1/5
f 391/1/5 388/1/5 387/1/5
f 392/1/5 388/1/5 391/1/5
f 397/3/5 394/3/5 393/3/5
f 398/3/5 394/3/5 397/3/5
f 399/3/5 396/3/5 395/3/5
f 400/3/5 396/3/5 399/3/5
f 405/3/5 402/3/5 401/3/5
f 406/3/5 402/3/5 405/3/5
f 407/3/5 404/3/5 403/3/5
f 408/3/5 404/3/5 407/3/5
f 411/2/5 410/2/5 409/2/5
f 412/2/5 410/2/5 411/2/5
f 413/2/5 411/2/5 409/2/5
f 414/2/5 410/2/5 412/2/5
f 415/2/5 413/2/5 409/2/5
f 415/2/5 414/2/5 413/2/5
f 416/2/5 410/2/5 414/2/5
f 416/2/5 414/2/5 415/2/5
f 417/1/6 418/1/6 421/1/6
f 421/1/6 418/1/6 422/1/6
f 419/1/6 420/1/6 423/1/6
f 423/1/6 420/1/6 424/1/6
f 425/1/6 426/1/6 429/1/6
f 429/1/6 426/1/6 430/1/6
f 427/1/6 428/1/6 431/1/6
f 431/1/6 428/1/6 432/1/6
f 433/1/6 434/1/6 437/1/6
f 437/1/6 434/1/6 438/1/6
f 435/1/6 436/1/6 439/1/6
f 439/1/6 436/1/6 440/1/6
f 441/3/6 442/3/6 445/3/6
f 445/3/6 442/3/6 446/3/6
f 443/3/6 444/3/6 447/3/6
f 447/3/6 444/3/6 448/3/6
f 449/1/6 450/1/6 453/1/6
f 453/1/6 450/1/6 454/1/6
f 451/1/6 452/1/6 455/1/6
f 455/1/6 452/1/6 456/1/6
f 457/1/6 458/1/6 461/1/6
f 461/1/6 458/1/6 462/1/6
f 459/1/6 460/1/6 463/1/6
f 463/1/6 460/1/6 464/1/6
f 465/1/6 466/1/6 469/1/6
f 469/1/6 466/1/6 470/1/6
f 467/1/6 468/1/6 471/1/6
f 471/1/6 468/1/6 472/1/6
f 473/3/6 474/3/6 475/3/6
f 475/3/6 474/3/6 476/3/6
f 477/1/6 478/1/6 481/1/6
f 481/1/6 478/1/6 482/1/6
f 479/1/6 480/1/6 483/1/6
f 483/1/6 480/1/6 484/1/6
f 485/2/6 486/2/6 487/2/6
f 487/2/6 486/2/6 488/2/6
f 485/2/6 487/2/6 489/2/6
f 488/2/6 486/2/6 490/2/6
f 485/2/6 489/2/6 491/2/6
f 489/2/6 490/2/6 491/2/6
f 490/2/6 486/2/6 492/2/6
f 491/2/6 490/2/6 492/2/6
