# MagicaVoxel @ Ephtracy

# group
g grass

# material
mtllib grass.mtl
usemtl palette

# normals
vn -1 0 0
vn 1 0 0
vn 0 0 1
vn 0 0 -1
vn 0 -1 0
vn 0 1 0

# texcoords
vt 0.205078 0.5
vt 0.896484 0.5
vt 0.900391 0.5
vt 0.904297 0.5

# verts
v -2 1 2
v -2 1 1
v -2 1 -0
v -2 1 -1
v -2 2 2
v -2 2 1
v -2 2 -0
v -2 2 -1
v -1 0 3
v -1 0 2
v -1 0 1
v -1 0 -1
v -1 0 -2
v -1 0 -3
v -1 1 2
v -1 1 1
v -1 1 -0
v -1 1 -1
v -1 1 -2
v -1 1 -3
v -1 2 3
v -1 2 2
v -1 2 1
v -1 2 -0
v -1 2 -1
v -1 2 -2
v -1 2 -3
v -1 3 -2
v -1 3 -3
v 0 2 2
v 0 2 1
v 0 2 -1
v 0 2 -2
v 0 3 2
v 0 3 1
v 0 3 -1
v 0 3 -2
v 0 2 -2
v 0 2 -3
v 0 3 -2
v 0 3 -3
v 1 0 3
v 1 0 1
v 1 0 -0
v 1 0 -1
v 1 0 -2
v 1 0 -3
v 1 1 3
v 1 1 1
v 1 1 -0
v 1 1 -1
v 1 1 -2
v 1 1 -3
v 1 2 3
v 1 2 2
v 1 2 1
v 1 2 -0
v 1 2 -1
v 1 2 -2
v 1 2 -3
v 1 3 2
v 1 3 1
v 1 3 -1
v 1 3 -2
v 2 1 -1
v 2 1 -2
v 2 2 -1
v 2 2 -2
v -1 0 3
v -1 2 3
v 0 1 3
v 0 2 3
v 1 0 3
v 1 1 3
v 1 2 3
v -2 1 2
v -2 2 2
v -1 1 2
v -1 2 2
v 0 2 2
v 0 3 2
v 1 2 2
v 1 3 2
v -2 1 -0
v -2 2 -0
v -1 1 -0
v -1 2 -0
v 0 2 -1
v 0 3 -1
v 1 1 -1
v 1 2 -1
v 1 3 -1
v 2 1 -1
v 2 2 -1
v -1 2 -2
v -1 3 -2
v 0 2 -2
v 0 3 -2
v -2 1 1
v -2 2 1
v -1 1 1
v -1 2 1
v 0 2 1
v 0 3 1
v 1 2 1
v 1 3 1
v -2 1 -1
v -2 2 -1
v -1 1 -1
v -1 2 -1
v 0 2 -2
v 0 3 -2
v 1 1 -2
v 1 2 -2
v 1 3 -2
v 2 1 -2
v 2 2 -2
v -1 0 -3
v -1 1 -3
v -1 2 -3
v -1 3 -3
v 0 1 -3
v 0 2 -3
v 0 3 -3
v 1 0 -3
v 1 1 -3
v 1 2 -3
v -1 0 3
v 1 0 3
v -1 0 2
v 0 0 2
v -1 0 1
v 0 0 1
v 1 0 1
v 0 0 -0
v 1 0 -0
v -1 0 -1
v 1 0 -1
v -1 0 -2
v 1 0 -2
v -1 0 -3
v 1 0 -3
v -2 1 2
v -1 1 2
v -2 1 1
v -1 1 1
v -2 1 -0
v -1 1 -0
v -2 1 -1
v -1 1 -1
v 1 1 -1
v 2 1 -1
v 1 1 -2
v 2 1 -2
v -1 2 3
v 0 2 3
v 1 2 3
v -2 2 2
v -1 2 2
v 0 2 2
v 1 2 2
v -2 2 1
v -1 2 1
v 0 2 1
v 1 2 1
v -2 2 -0
v -1 2 -0
v 0 2 -0
v 1 2 -0
v -2 2 -1
v -1 2 -1
v 0 2 -1
v 1 2 -1
v 2 2 -1
v -1 2 -2
v 0 2 -2
v 1 2 -2
v 2 2 -2
v 0 2 -3
v 1 2 -3
v 0 3 2
v 1 3 2
v 0 3 1
v 1 3 1
v 0 3 -1
v 1 3 -1
v -1 3 -2
v 0 3 -2
v 1 3 -2
v -1 3 -3
v 0 3 -3

# faces
f 5/4/1 2/4/1 1/4/1
f 6/4/1 2/4/1 5/4/1
f 7/4/1 4/4/1 3/4/1
f 8/4/1 4/4/1 7/4/1
f 15/4/1 10/4/1 9/4/1
f 15/1/1 11/1/1 10/1/1
f 16/4/1 12/4/1 11/4/1
f 16/1/1 11/1/1 15/1/1
f 17/4/1 12/4/1 16/4/1
f 18/1/1 13/1/1 12/1/1
f 18/4/1 12/4/1 17/4/1
f 19/4/1 14/4/1 13/4/1
f 19/1/1 13/1/1 18/1/1
f 20/4/1 14/4/1 19/4/1
f 21/4/1 15/4/1 9/4/1
f 22/4/1 15/4/1 21/4/1
f 23/3/1 17/3/1 16/3/1
f 24/3/1 17/3/1 23/3/1
f 25/4/1 19/4/1 18/4/1
f 26/3/1 20/3/1 19/3/1
f 26/4/1 19/4/1 25/4/1
f 27/3/1 20/3/1 26/3/1
f 28/2/1 27/2/1 26/2/1
f 29/2/1 27/2/1 28/2/1
f 34/2/1 31/2/1 30/2/1
f 35/2/1 31/2/1 34/2/1
f 36/2/1 33/2/1 32/2/1
f 37/2/1 33/2/1 36/2/1
f 38/2/2 39/2/2 40/2/2
f 40/2/2 39/2/2 41/2/2
f 42/4/2 43/4/2 48/4/2
f 43/1/2 44/1/2 49/1/2
f 48/4/2 43/4/2 49/4/2
f 44/4/2 45/4/2 50/4/2
f 49/1/2 44/1/2 50/1/2
f 45/1/2 46/1/2 51/1/2
f 50/4/2 45/4/2 51/4/2
f 46/4/2 47/4/2 52/4/2
f 51/1/2 46/1/2 52/1/2
f 52/4/2 47/4/2 53/4/2
f 48/3/2 49/3/2 54/3/2
f 49/3/2 50/3/2 54/3/2
f 54/3/2 50/3/2 55/3/2
f 55/3/2 50/3/2 56/3/2
f 50/4/2 51/4/2 57/4/2
f 56/3/2 50/3/2 57/3/2
f 57/4/2 51/4/2 58/4/2
f 52/2/2 53/2/2 59/2/2
f 59/2/2 53/2/2 60/2/2
f 55/2/2 56/2/2 61/2/2
f 61/2/2 56/2/2 62/2/2
f 58/2/2 59/2/2 63/2/2
f 63/2/2 59/2/2 64/2/2
f 65/4/2 66/4/2 67/4/2
f 67/4/2 66/4/2 68/4/2
f 71/4/3 70/4/3 69/4/3
f 72/4/3 70/4/3 71/4/3
f 73/4/3 71/4/3 69/4/3
f 74/3/3 72/3/3 71/3/3
f 74/4/3 71/4/3 73/4/3
f 75/3/3 72/3/3 74/3/3
f 78/4/3 77/4/3 76/4/3
f 79/4/3 77/4/3 78/4/3
f 82/2/3 81/2/3 80/2/3
f 83/2/3 81/2/3 82/2/3
f 86/4/3 85/4/3 84/4/3
f 87/4/3 85/4/3 86/4/3
f 91/2/3 89/2/3 88/2/3
f 92/2/3 89/2/3 91/2/3
f 93/4/3 91/4/3 90/4/3
f 94/4/3 91/4/3 93/4/3
f 97/2/3 96/2/3 95/2/3
f 98/2/3 96/2/3 97/2/3
f 99/4/4 100/4/4 101/4/4
f 101/4/4 100/4/4 102/4/4
f 103/2/4 104/2/4 105/2/4
f 105/2/4 104/2/4 106/2/4
f 107/4/4 108/4/4 109/4/4
f 109/4/4 108/4/4 110/4/4
f 111/2/4 112/2/4 114/2/4
f 114/2/4 112/2/4 115/2/4
f 113/4/4 114/4/4 116/4/4
f 116/4/4 114/4/4 117/4/4
f 118/4/4 119/4/4 122/4/4
f 119/3/4 120/3/4 122/3/4
f 120/2/4 121/2/4 123/2/4
f 122/3/4 120/3/4 123/3/4
f 123/2/4 121/2/4 124/2/4
f 118/4/4 122/4/4 125/4/4
f 122/2/4 123/2/4 126/2/4
f 125/4/4 122/4/4 126/4/4
f 126/2/4 123/2/4 127/2/4
f 130/4/5 129/4/5 128/4/5
f 131/4/5 129/4/5 130/4/5
f 132/1/5 131/1/5 130/1/5
f 133/4/5 129/4/5 131/4/5
f 133/1/5 131/1/5 132/1/5
f 134/4/5 129/4/5 133/4/5
f 135/4/5 133/4/5 132/4/5
f 135/1/5 134/1/5 133/1/5
f 136/1/5 134/1/5 135/1/5
f 137/4/5 135/4/5 132/4/5
f 137/4/5 136/4/5 135/4/5
f 138/4/5 136/4/5 137/4/5
f 139/1/5 138/1/5 137/1/5
f 140/1/5 138/1/5 139/1/5
f 141/4/5 140/4/5 139/4/5
f 142/4/5 140/4/5 141/4/5
f 145/4/5 144/4/5 143/4/5
f 146/4/5 144/4/5 145/4/5
f 149/4/5 148/4/5 147/4/5
f 150/4/5 148/4/5 149/4/5
f 153/4/5 152/4/5 151/4/5
f 154/4/5 152/4/5 153/4/5
f 155/4/6 156/4/6 159/4/6
f 156/3/6 157/3/6 160/3/6
f 159/4/6 156/4/6 160/4/6
f 160/3/6 157/3/6 161/3/6
f 158/4/6 159/4/6 162/4/6
f 159/3/6 160/3/6 163/3/6
f 162/4/6 159/4/6 163/4/6
f 163/3/6 160/3/6 164/3/6
f 164/3/6 165/3/6 167/3/6
f 163/3/6 164/3/6 167/3/6
f 167/3/6 165/3/6 168/3/6
f 168/3/6 165/3/6 169/3/6
f 166/4/6 167/4/6 170/4/6
f 167/3/6 168/3/6 171/3/6
f 170/4/6 167/4/6 171/4/6
f 168/4/6 169/4/6 172/4/6
f 171/3/6 168/3/6 172/3/6
f 172/4/6 169/4/6 173/4/6
f 171/4/6 172/4/6 175/4/6
f 175/4/6 172/4/6 176/4/6
f 173/4/6 174/4/6 177/4/6
f 177/4/6 174/4/6 178/4/6
f 176/2/6 177/2/6 179/2/6
f 179/2/6 177/2/6 180/2/6
f 181/2/6 182/2/6 183/2/6
f 183/2/6 182/2/6 184/2/6
f 185/2/6 186/2/6 188/2/6
f 188/2/6 186/2/6 189/2/6
f 187/2/6 188/2/6 190/2/6
f 190/2/6 188/2/6 191/2/6
